<svg xmlns="http://www.w3.org/2000/svg" width="195" height="20" viewBox="0 0 195 20"><g><g><g><g><path fill="#0055a5" d="M161.028 19.155h-4.9L159.192.336h4.9z"/></g><g><path fill="#0055a5" d="M152.007.337l-4.671 12.942-.552-2.787v.001l-1.649-8.462s-.199-1.694-2.324-1.694h-7.721l-.09.318s2.362.491 5.124 2.152l4.257 16.347h5.104L157.28.337z"/></g><g><path fill="#0055a5" d="M185.15 12.498l2.576-7.042 1.448 7.042zm5.392 6.656h4.498L191.118.337h-3.939c-1.819 0-2.262 1.402-2.262 1.402l-7.305 17.415h5.106l1.022-2.794h6.228z"/></g><g><path fill="#0055a5" d="M177.995 4.862l.698-4.042S176.536 0 174.287 0c-2.431 0-8.204 1.063-8.204 6.23 0 4.862 6.775 4.922 6.775 7.474 0 2.553-6.077 2.097-8.083.487l-.729 4.224s2.188 1.064 5.53 1.064c3.344 0 8.388-1.733 8.388-6.443 0-4.893-6.837-5.348-6.837-7.475 0-2.128 4.771-1.854 6.868-.7z"/></g></g><g><path fill="#fc9220" d="M146.784 10.493l-1.649-8.462s-.199-1.694-2.324-1.694h-7.72L135 .655s3.711.77 7.272 3.65c3.402 2.755 4.512 6.188 4.512 6.188z"/></g></g><g><g><path fill="#fff" d="M99.618 19.07c.367 0 .626-.302.626-.669 0-.388-.26-.668-.626-.668-.387 0-.624.302-.624.668 0 .367.237.647.624.668zm1.056.366h-.452v-.259c-.13.194-.345.302-.647.302-.581 0-1.034-.453-1.034-1.078s.453-1.077 1.034-1.077c.28 0 .496.108.647.301v-.258h.452zm15.754-.367c.366 0 .624-.301.624-.668 0-.388-.258-.668-.624-.668-.388 0-.625.302-.625.668 0 .367.237.647.625.668zm1.034.367h-.453v-.259c-.129.194-.344.302-.646.302-.582 0-1.035-.453-1.035-1.078s.453-1.077 1.035-1.077c.28 0 .495.108.646.301v-1.077h.453zm-11.788-1.229h1.078c-.044-.323-.237-.495-.518-.495-.323 0-.517.215-.56.495zm.56-.883c.582 0 .97.43.949 1.099v.172h-1.53c.064.367.344.496.625.496.215 0 .43-.086.603-.216l.215.324c-.237.194-.538.28-.84.28-.625 0-1.056-.431-1.056-1.078 0-.646.431-1.077 1.034-1.077zm6.034 1.745c.367 0 .625-.301.625-.668 0-.388-.258-.668-.625-.668-.388 0-.625.302-.625.668 0 .367.237.647.625.668zm1.035.367h-.453v-.259c-.129.194-.345.302-.646.302-.582 0-1.035-.453-1.035-1.078s.453-1.077 1.035-1.077c.28 0 .495.108.646.301v-.258h.453zm-3.082-2.112c.302 0 .517.064.733.237l-.216.366a.87.87 0 0 0-.538-.194c-.367.022-.625.28-.625.668 0 .41.258.668.625.668a.87.87 0 0 0 .538-.194l.216.367c-.216.172-.431.237-.733.237-.668 0-1.099-.453-1.099-1.078s.431-1.077 1.1-1.077zm4.677 0c.086 0 .215 0 .301.021l-.13.431a1.26 1.26 0 0 0-.28-.043c-.28 0-.43.194-.43.539v1.164h-.453v-2.07h.453v.26a.608.608 0 0 1 .539-.302zm-12.025.215l-.194.367a1.552 1.552 0 0 0-.647-.173c-.237 0-.388.086-.388.237 0 .13.151.173.345.194l.215.022c.432.064.712.258.712.625 0 .388-.345.668-.948.668-.324 0-.647-.086-.884-.259l.215-.345c.151.108.388.216.69.216.302 0 .474-.108.474-.259 0-.108-.13-.172-.366-.215l-.216-.022c-.452-.064-.71-.258-.71-.603 0-.41.344-.668.861-.668.323 0 .625.064.84.215zm5.797-.215c.086 0 .215 0 .301.021l-.13.431a1.26 1.26 0 0 0-.28-.043c-.28 0-.43.194-.43.539v1.164h-.453v-2.07h.453v.26a.607.607 0 0 1 .539-.302zm-3.836.452h-.733v.927c0 .215.086.345.302.345a.709.709 0 0 0 .387-.108l.13.388c-.151.086-.366.15-.56.15-.518 0-.712-.28-.712-.754v-.948h-.409v-.41h.41v-.624h.452v.625h.733zm-7.198 1.66v-1.143c0-.344-.15-.538-.453-.538-.28 0-.495.172-.495.538v1.143h-.453v-1.143c0-.344-.15-.538-.452-.538-.302 0-.496.172-.496.538v1.143h-.453v-2.07h.453v.26a.696.696 0 0 1 .603-.302c.324 0 .54.129.69.366.194-.28.474-.366.733-.366.517 0 .819.323.819.819v1.293z"/></g><g><path fill="#ff5f00" d="M102.722 13.854V1.657h6.788v12.197z"/></g><g><path fill="#eb001b" d="M103.153 7.756a7.779 7.779 0 0 1 2.952-6.1 7.71 7.71 0 0 0-4.784-1.658 7.753 7.753 0 0 0-7.758 7.758 7.753 7.753 0 0 0 7.758 7.758 7.71 7.71 0 0 0 4.784-1.66 7.746 7.746 0 0 1-2.952-6.098z"/></g><g><path fill="#f79e1b" d="M118.669 7.756a7.753 7.753 0 0 1-7.758 7.758 7.71 7.71 0 0 1-4.784-1.66 7.714 7.714 0 0 0 2.952-6.098 7.779 7.779 0 0 0-2.952-6.1 7.71 7.71 0 0 1 4.784-1.658c4.288 0 7.758 3.49 7.758 7.758z"/></g></g><g><g><g><path fill="#0772b8" d="M74.573 2.817l-.48-.688h-2.175s-.138.021-.138-.233c0-.255.109-.233.109-.233h1.869l-.155-.31h-2.645v.638l.248.482H73.4l.242.482h-2.56l-.706-.816h-1.5v1.837h-2.653v-1.02h2.182v-.837h-3.137v2.439h4.412V3.181h.238l.354.335 3.714.019.587-.602zm-2.408 1.436h-.698v.305h.698zm-1.142 0h-.698v.305h.698zm-6.91-1.775h-1.406v1.038h1.407zm-2.579-1.04h-.576v.306h.576zm0 .701l-.584-.003v.705h-.472v-.726h-.56v.833h-6.525v-.252l.575-1.258h-.917l-.683 1.287v.197l.815.957h8.351zm-7.086-.395h.698v-.306h-.698zm1.142 0h.698v-.306h-.698zM77.567 0v5.207H49.255V0zM63.335 15.862a.648.648 0 0 0 0 0 .742.742 0 0 0-.557.24 1.095 1.095 0 0 1 0 0 .742.742 0 0 1 .557-.24zm11.238-.482h-.805v-.995l-.762.216v.78h-.562v.597h.562v1.902c0 .626.326.94.98.94.241 0 .437-.038.587-.113v-.604a.523.523 0 0 1-.335.112c-.17 0-.29-.043-.362-.128-.072-.086-.108-.228-.108-.427v-1.682h.805zm-9.783 1.597c0-.526-.126-.937-.378-1.233-.252-.295-.608-.443-1.068-.443-.46 0-.844.165-1.154.495-.31.33-.465.755-.465 1.279 0 .554.14.984.422 1.289.282.306.67.459 1.165.459.503 0 .908-.097 1.216-.29v-.614c-.3.215-.63.322-.99.322-.32 0-.57-.085-.753-.253-.183-.168-.28-.408-.288-.72h2.293zm-9.426-.29c0-.449-.096-.792-.29-1.03-.192-.237-.471-.356-.837-.356-.475 0-.839.212-1.09.637h-.014v-.558h-.766v3.363h.766v-1.918a.97.97 0 0 1 .227-.658.73.73 0 0 1 .575-.262c.444 0 .667.314.667.943v1.895h.762zm22.203-2.854v5.643H49.255v-5.642zm-6.457-.988L67.01 9.334v-.252l3.83-2.822h-7.001l-3.695 2.73V6.174h-5.208v6.865h5.208V9.354l3.636 3.684h7.331zm6.457-7.394v8.139H49.255V5.45zM63.861 16.09a.648.648 0 0 0-.526-.229.742.742 0 0 0-.557.24c-.152.16-.246.37-.28.628h1.556c-.002-.274-.066-.487-.193-.639z"/></g><g><path fill="#fff" d="M49.254 5.451v-.244.244z"/></g><g><path fill="#fff" d="M49.254 13.834v-.244.244z"/></g></g><g><path fill="#fae80d" d="M71.11 12.845v.193h-7.33l-3.637-3.684v3.684h-5.208V6.173h5.208V8.99l3.695-2.731h7l-3.83 2.822v.252z"/></g></g><g><g><path fill="#0e9347" d="M31.461 19.476H1.498A1.503 1.503 0 0 1 0 17.978V1.498C0 .674.674 0 1.498 0h29.963c.824 0 1.499.674 1.499 1.498v16.48c0 .824-.675 1.498-1.499 1.498z"/></g><g><path fill="#3bb54a" d="M28.465 17.978H4.495a3.005 3.005 0 0 0-2.997-2.996V4.495a3.005 3.005 0 0 0 2.996-2.997h23.971a3.005 3.005 0 0 0 2.996 2.997v10.487a3.005 3.005 0 0 0-2.996 2.996z"/></g><g><g><path fill="#0e9347" d="M10.487 9.738c0-3.723 2.683-6.742 5.993-6.742 3.31 0 5.992 3.019 5.992 6.742S19.79 16.48 16.48 16.48c-3.31 0-5.993-3.019-5.993-6.742z"/></g><g><path fill="#0e9347" d="M5.993 9.738a1.498 1.498 0 1 1 2.996 0 1.498 1.498 0 0 1-2.996 0z"/></g><g><path fill="#0e9347" d="M23.97 9.738a1.498 1.498 0 1 1 2.997 0 1.498 1.498 0 0 1-2.997 0z"/></g></g><g><path fill="#89c763" d="M17.229 8.989H15.73c-.45 0-.75-.3-.75-.749 0-.45.3-.75.75-.75h2.247c.45 0 .749-.299.749-.748 0-.45-.3-.75-.75-.75h-.748c0-.449-.3-.748-.75-.748-.449 0-.748.3-.748.749-1.274 0-2.248.974-2.248 2.247s.974 2.247 2.248 2.247h1.498c.45 0 .749.3.749.75 0 .449-.3.748-.75.748h-2.246c-.45 0-.75.3-.75.75 0 .449.3.748.75.748h.749c0 .45.3.75.749.75.45 0 .749-.3.749-.75 1.273 0 2.247-.973 2.247-2.247 0-1.273-.974-2.247-2.247-2.247z"/></g></g></g></svg>